<svg xmlns="http://www.w3.org/2000/svg" xml:space="preserve" width="1500" height="423" data-id="lg_Dr9ihc1diJ5Ka0sice" data-version="1" viewBox="0 0 1500 423"><g data-padding="20"><g fill="#b7feae"><path d="M732.043 127.221c-.818 0-13.91 3.273-18.001 18.82l11.455 3.273c2.455-8.183 9-9.819 9.819-10.637l-1.637-5.728Z"/><path d="M1013.517 172.225q-3.682-8.592-12.274-12.274t-17.183 0c-8.182 3.273-12.273 13.092-9 22.092l11.455-4.909c-.818-2.455 0-4.91 2.455-5.728s5.728-.818 8.182 0 4.91 3.273 5.728 5.728c4.091 9.819-.818 21.274-10.637 24.547-16.365 6.546-35.184-.818-42.549-17.183v-2.455c0-37.639-9.818-54.822-27.82-72.005-3.273-3.273-7.364-6.546-11.455-9.819l1.636-28.638c0-2.455-.818-4.91-3.273-6.546l-4.09-1.636-25.366 19.637c-13.91-5.727-28.639-9.818-45.003-11.455V7.758H520.119c-19.638 0-36.003 16.365-36.003 36.003v335.478c0 19.638 16.365 36.003 36.003 36.003H835.14V283.505h10.637c1.637 5.728 4.091 9.819 7.364 13.092 4.091 4.091 9.82 6.546 16.365 6.546h1.636c7.365 0 19.638-.818 21.275-18.82 1.636-13.91 16.364-24.547 16.364-24.547l1.637-.818c18.82-13.91 31.093-33.548 36.002-55.64a44.19 44.19 0 0 0 49.095 10.637c17.183-7.364 24.547-26.184 18.001-41.73M513.573 20.85v323.205c-6.546.818-12.274 4.09-17.183 8.182V43.761a24.55 24.55 0 0 1 17.183-22.91m309.294 382.117H520.12a23.729 23.729 0 0 1 0-47.458h302.748Zm0-59.731h-297.02V20.032h296.202v49.913h-7.364c-23.729 0-47.458 4.91-67.914 13.91L725.497 67.49c-2.455-1.637-4.91-1.637-7.364-.818l-4.091 2.454 2.454 32.73c-9.819 7.364-18.001 17.183-24.547 27.82-1.636 2.455-2.455 4.91-4.091 7.364s-4.91 5.728-9 5.728h-14.729c-8.182 0-15.547 6.546-15.547 15.546v14.729c0 8.182 6.546 15.546 15.547 15.546 7.364 0 14.728 8.183 18.82 19.638 0 .818.818 1.637.818 2.455a98.2 98.2 0 0 0 23.729 38.457c3.273 3.273 6.546 6.546 9.818 9l1.637.819s14.728 11.455 16.365 24.547c2.454 18.001 14.728 18.82 21.274 18.82h1.636c6.546 0 18.82-2.455 23.73-19.638h38.457v60.55Zm81.006-94.916-1.636.818c-.819.818-19.638 13.91-21.275 32.73-.818 8.182-2.454 8.182-9.819 8.182h-.818c-4.091 0-6.546-.818-9-3.273-4.092-4.091-6.546-12.274-6.546-22.91h-12.274v6.545h-57.277v-6.546h-12.273v5.728c-1.637 20.456-11.456 20.456-14.729 20.456h-.818c-7.364 0-9 0-9.819-8.182-2.454-18.82-20.456-32.73-21.274-32.73l-.818-.818c-3.273-2.455-6.546-4.91-9-7.364-9.82-9.001-16.366-21.275-20.457-33.548 0-.818-.818-1.637-.818-2.455-5.728-17.183-17.183-28.638-30.275-28.638-1.636 0-3.273-1.637-3.273-3.273v-14.729c0-1.636 1.637-3.272 3.273-3.272h14.728c7.365 0 13.91-4.092 18.82-10.638.818-1.636 1.636-2.454 2.455-4.09 0-.819.818-.819.818-1.637.818-.819.818-1.637 1.636-3.273 4.092-6.546 9.001-13.092 14.729-18.001l12.273-.819-2.454-31.911 27.82 22.092 7.364-9.818-4.91-4.092c17.183-6.546 36.821-10.637 56.459-10.637 18.82 0 36.82 3.273 53.185 9l-4.909 3.274 7.364 9.819 27.82-22.093-2.454 31.912 12.273.818v-.818l4.091 4.09c15.547 15.547 24.548 30.276 24.548 63.823.818 26.184-11.456 50.731-32.73 66.278"/><path d="m792.592 99.483 2.455 12.274s32.73-6.546 57.277 4.91l4.91-10.638c-27.82-14.728-63.005-7.364-64.642-6.546M545.484 306.416h148.92v12.273h-148.92Zm85.097-30.275h12.274v12.273H630.58Zm-85.097 0h12.274v12.273h-12.274Zm28.639 0h12.273v12.273h-12.273Zm28.638 0h12.274v12.273H602.76Z"/></g><path fill="transparent" stroke="transparent" d="M474 0h552v423H474z"/></g></svg>