<svg xmlns="http://www.w3.org/2000/svg" xml:space="preserve" width="1500" height="1500" data-id="lg_Dr9ihc1diJ5Ka0sice" data-version="1" viewBox="0 0 1500 1500"><path fill="#333b6a" stroke="transparent" d="M0 0h1500v1500H0z"/><g data-padding="20"><g fill="#b7feae"><path d="M717.469 597.321c-1.482 0-25.2 5.93-32.611 34.094l20.752 5.929c4.447-14.823 16.306-17.788 17.788-19.27l-2.965-10.376Z"/><path d="M1227.386 678.849q-6.67-15.564-22.235-22.235t-31.128 0c-14.824 5.93-22.235 23.717-16.306 40.023l20.753-8.894c-1.483-4.447 0-8.894 4.446-10.377s10.377-1.482 14.824 0 8.894 5.93 10.376 10.377c7.411 17.787-1.482 38.54-19.27 44.47-29.647 11.858-63.74-1.483-77.08-31.13v-4.446c0-68.187-17.789-99.316-50.4-130.444-5.929-5.93-13.34-11.859-20.752-17.788l2.965-51.881c0-4.447-1.483-8.894-5.93-11.859l-7.411-2.964-45.952 35.575c-25.2-10.376-51.881-17.788-81.527-20.752V380.903h-569.21c-35.576 0-65.222 29.646-65.222 65.222v607.75c0 35.576 29.646 65.222 65.222 65.222H904.24V880.444h19.27c2.965 10.376 7.412 17.788 13.34 23.717 7.412 7.412 17.789 11.859 29.647 11.859h2.965c13.34 0 35.575-1.483 38.54-34.094 2.965-25.2 29.646-44.47 29.646-44.47l2.965-1.482c34.093-25.199 56.328-60.775 65.222-100.797a80.05 80.05 0 0 0 88.939 19.27c31.129-13.34 44.47-47.434 32.611-75.598M321.69 404.62v585.515c-11.858 1.483-22.235 7.412-31.129 14.824V446.125a44.47 44.47 0 0 1 31.13-41.505m560.315 692.242H333.55a42.987 42.987 0 0 1 0-85.974h548.457Zm0-108.209H343.925V403.138h536.599v90.421h-13.341c-42.987 0-85.975 8.894-123.032 25.2l-38.54-29.647c-4.448-2.964-8.895-2.964-13.342-1.482l-7.411 4.447 4.447 59.292c-17.788 13.341-32.611 31.13-44.47 50.4-2.964 4.446-4.447 8.893-7.411 13.34s-8.894 10.376-16.306 10.376h-26.681c-14.824 0-28.165 11.859-28.165 28.164v26.682c0 14.823 11.859 28.164 28.165 28.164 13.34 0 26.681 14.823 34.093 35.576 0 1.482 1.482 2.964 1.482 4.447A177.9 177.9 0 0 0 673 818.187c5.93 5.929 11.859 11.858 17.788 16.305l2.965 1.482s26.681 20.753 29.646 44.47c4.447 32.61 26.682 34.093 38.54 34.093h2.965c11.859 0 34.093-4.447 42.987-35.575h69.67v109.691Zm146.75-171.949-2.965 1.483c-1.482 1.482-35.576 25.199-38.54 59.292-1.483 14.823-4.447 14.823-17.788 14.823h-1.483c-7.411 0-11.858-1.482-16.305-5.929-7.412-7.411-11.859-22.235-11.859-41.505h-22.234v11.859H813.819v-11.859h-22.234v10.377c-2.965 37.057-20.753 37.057-26.682 37.057h-1.482c-13.341 0-16.306 0-17.788-14.823-4.447-34.093-37.058-59.292-38.54-59.292l-1.483-1.483c-5.929-4.447-11.858-8.894-16.305-13.34-17.788-16.306-29.647-38.54-37.058-60.776 0-1.482-1.482-2.964-1.482-4.447-10.377-31.128-31.13-51.88-54.846-51.88-2.965 0-5.93-2.965-5.93-5.93V653.65c0-2.964 2.965-5.929 5.93-5.929H622.6c13.34 0 25.199-7.411 34.093-19.27 1.482-2.965 2.964-4.447 4.447-7.412 0-1.482 1.482-1.482 1.482-2.964 1.482-1.483 1.482-2.965 2.965-5.93 7.411-11.858 16.305-23.717 26.681-32.61l22.235-1.483-4.447-57.81 50.399 40.022 13.34-17.787-8.893-7.412c31.129-11.859 66.704-19.27 102.28-19.27 34.093 0 66.704 5.93 96.35 16.305l-8.893 5.93 13.34 17.787 50.4-40.022-4.448 57.81 22.235 1.483v-1.483l7.412 7.412c28.164 28.164 44.47 54.846 44.47 115.62 1.481 47.435-20.753 91.904-59.294 120.068"/><path d="m827.16 547.07 4.447 22.236S890.9 557.447 935.37 578.2l8.894-19.27c-50.398-26.682-114.138-13.341-117.103-11.86M379.5 921.95h269.782v22.235H379.501Zm154.162-54.846h22.234v22.235h-22.234Zm-154.161 0h22.234v22.235h-22.234Zm51.88 0h22.235v22.235h-22.234Zm51.882 0h22.234v22.235h-22.234Z"/></g><path fill="transparent" stroke="transparent" stroke-width="1.812" d="M250 366.848h1000v766.304H250z"/></g></svg>